<mxfile host="app.diagrams.net" modified="2023-07-18T06:43:58.720Z" agent="Mozilla/5.0 (Macintosh; Intel Mac OS X 10_15_7) AppleWebKit/537.36 (KHTML, like Gecko) Chrome/114.0.0.0 Safari/537.36" version="21.6.2" etag="0sy08uCr1WjMSgQ64QCs" type="github">
  <diagram name="Page-1" id="t8xTWO88OD2IfEUREvt-">
    <mxGraphModel>
      <root>
        <mxCell id="0" />
        <mxCell id="1" parent="0" />
      </root>
    </mxGraphModel>
  </diagram>
</mxfile>
